<svg xmlns="http://www.w3.org/2000/svg" width="96" height="96" viewBox="0 0 96 96">
  <!-- Keyboard body (dimmed) -->
  <rect x="8" y="28" width="80" height="48" rx="6" ry="6"
        fill="none" stroke="#888888" stroke-width="2.5"/>
  <!-- Row 1 keys (dimmed) -->
  <rect x="14" y="34" width="8" height="8" rx="1.5" fill="#888888" opacity="0.5"/>
  <rect x="24" y="34" width="8" height="8" rx="1.5" fill="#888888" opacity="0.5"/>
  <rect x="34" y="34" width="8" height="8" rx="1.5" fill="#888888" opacity="0.5"/>
  <rect x="44" y="34" width="8" height="8" rx="1.5" fill="#888888" opacity="0.5"/>
  <rect x="54" y="34" width="8" height="8" rx="1.5" fill="#888888" opacity="0.5"/>
  <rect x="64" y="34" width="8" height="8" rx="1.5" fill="#888888" opacity="0.5"/>
  <rect x="74" y="34" width="8" height="8" rx="1.5" fill="#888888" opacity="0.5"/>
  <!-- Row 2 keys (dimmed) -->
  <rect x="16" y="44" width="8" height="8" rx="1.5" fill="#888888" opacity="0.5"/>
  <rect x="26" y="44" width="8" height="8" rx="1.5" fill="#888888" opacity="0.5"/>
  <rect x="36" y="44" width="8" height="8" rx="1.5" fill="#888888" opacity="0.5"/>
  <rect x="46" y="44" width="8" height="8" rx="1.5" fill="#888888" opacity="0.5"/>
  <rect x="56" y="44" width="8" height="8" rx="1.5" fill="#888888" opacity="0.5"/>
  <rect x="66" y="44" width="8" height="8" rx="1.5" fill="#888888" opacity="0.5"/>
  <!-- Spacebar (dimmed) -->
  <rect x="24" y="54" width="48" height="8" rx="1.5" fill="#888888" opacity="0.5"/>
  <!-- Lock icon -->
  <g transform="translate(60, 4)">
    <!-- Lock body -->
    <rect x="4" y="12" width="18" height="14" rx="3" fill="#e74c3c"/>
    <!-- Lock shackle -->
    <path d="M8,12 V8 A5,5 0 0 1 18,8 V12" fill="none" stroke="#e74c3c" stroke-width="2.5" stroke-linecap="round"/>
    <!-- Keyhole -->
    <circle cx="13" cy="19" r="2" fill="#1a1a2e"/>
    <rect x="12" y="19" width="2" height="4" rx="0.5" fill="#1a1a2e"/>
  </g>
</svg>
