<svg xmlns="http://www.w3.org/2000/svg" width="96" height="96" viewBox="0 0 96 96">
  <defs>
    <!-- Keyhole mask for the lock body -->
    <mask id="keyhole-mask">
      <rect x="0" y="0" width="96" height="96" fill="white"/>
      <circle cx="13" cy="19" r="2" fill="black"/>
      <rect x="12" y="19" width="2" height="4" rx="0.5" fill="black"/>
    </mask>
    <!-- Keyboard mask to cut out keys -->
    <mask id="keyboard-mask">
      <rect x="8" y="28" width="80" height="48" rx="6" ry="6" fill="white"/>
      <!-- Row 1 keys -->
      <rect x="14" y="34" width="8" height="8" rx="1.5" fill="black"/>
      <rect x="24" y="34" width="8" height="8" rx="1.5" fill="black"/>
      <rect x="34" y="34" width="8" height="8" rx="1.5" fill="black"/>
      <rect x="44" y="34" width="8" height="8" rx="1.5" fill="black"/>
      <rect x="54" y="34" width="8" height="8" rx="1.5" fill="black"/>
      <rect x="64" y="34" width="8" height="8" rx="1.5" fill="black"/>
      <rect x="74" y="34" width="8" height="8" rx="1.5" fill="black"/>
      <!-- Row 2 keys -->
      <rect x="16" y="44" width="8" height="8" rx="1.5" fill="black"/>
      <rect x="26" y="44" width="8" height="8" rx="1.5" fill="black"/>
      <rect x="36" y="44" width="8" height="8" rx="1.5" fill="black"/>
      <rect x="46" y="44" width="8" height="8" rx="1.5" fill="black"/>
      <rect x="56" y="44" width="8" height="8" rx="1.5" fill="black"/>
      <rect x="66" y="44" width="8" height="8" rx="1.5" fill="black"/>
      <!-- Spacebar -->
      <rect x="24" y="54" width="48" height="8" rx="1.5" fill="black"/>
    </mask>
  </defs>

  <!-- Keyboard body filled with currentColor, masked to cut out keys (dimmed) -->
  <rect x="8" y="28" width="80" height="48" rx="6" ry="6" fill="currentColor" mask="url(#keyboard-mask)" opacity="0.4"/>

  <!-- Lock icon (with error class for red color) -->
  <g class="error" fill="currentColor" transform="translate(60, 4)">
    <!-- Lock body with mask to cut out keyhole -->
    <rect x="4" y="12" width="18" height="14" rx="3" mask="url(#keyhole-mask)"/>
    <!-- Lock shackle -->
    <path d="M8,12 V8 A5,5 0 0 1 18,8 V12" fill="none" stroke="currentColor" stroke-width="2.5" stroke-linecap="round"/>
  </g>
</svg>
